<svg xmlns="http://www.w3.org/2000/svg" xmlns:xlink="http://www.w3.org/1999/xlink" width="50" zoomAndPan="magnify" viewBox="0 0 37.5 37.499999" height="50" preserveAspectRatio="xMidYMid meet" version="1.0"><defs><clipPath id="43dd5feb72"><path d="M 0 0 L 37.007812 0 L 37.007812 37.007812 L 0 37.007812 Z M 0 0 " clip-rule="nonzero"/></clipPath></defs><g clip-path="url(#43dd5feb72)"><path fill="#757575" d="M 37.007812 18.503906 C 37.007812 19.109375 36.976562 19.714844 36.917969 20.316406 C 36.859375 20.921875 36.769531 21.519531 36.652344 22.113281 C 36.53125 22.707031 36.386719 23.292969 36.210938 23.875 C 36.035156 24.453125 35.828125 25.023438 35.597656 25.585938 C 35.367188 26.144531 35.105469 26.691406 34.820312 27.226562 C 34.535156 27.761719 34.226562 28.277344 33.886719 28.78125 C 33.550781 29.285156 33.191406 29.773438 32.804688 30.242188 C 32.421875 30.710938 32.015625 31.160156 31.585938 31.585938 C 31.160156 32.015625 30.710938 32.421875 30.242188 32.804688 C 29.773438 33.191406 29.285156 33.550781 28.78125 33.886719 C 28.277344 34.226562 27.761719 34.535156 27.226562 34.820312 C 26.691406 35.105469 26.144531 35.367188 25.585938 35.597656 C 25.023438 35.828125 24.453125 36.035156 23.875 36.210938 C 23.292969 36.386719 22.707031 36.53125 22.113281 36.652344 C 21.519531 36.769531 20.921875 36.859375 20.316406 36.917969 C 19.714844 36.976562 19.109375 37.007812 18.503906 37.007812 C 17.898438 37.007812 17.292969 36.976562 16.691406 36.917969 C 16.085938 36.859375 15.488281 36.769531 14.894531 36.652344 C 14.300781 36.53125 13.710938 36.386719 13.132812 36.210938 C 12.550781 36.035156 11.980469 35.828125 11.421875 35.597656 C 10.863281 35.367188 10.316406 35.105469 9.78125 34.820312 C 9.246094 34.535156 8.726562 34.226562 8.222656 33.886719 C 7.71875 33.550781 7.234375 33.191406 6.765625 32.804688 C 6.296875 32.421875 5.847656 32.015625 5.417969 31.585938 C 4.992188 31.160156 4.585938 30.710938 4.199219 30.242188 C 3.816406 29.773438 3.453125 29.285156 3.117188 28.78125 C 2.78125 28.277344 2.46875 27.761719 2.183594 27.226562 C 1.898438 26.691406 1.640625 26.144531 1.410156 25.585938 C 1.175781 25.023438 0.972656 24.453125 0.796875 23.875 C 0.621094 23.292969 0.472656 22.707031 0.355469 22.113281 C 0.238281 21.519531 0.148438 20.921875 0.0898438 20.316406 C 0.03125 19.714844 0 19.109375 0 18.503906 C 0 17.898438 0.03125 17.292969 0.0898438 16.691406 C 0.148438 16.085938 0.238281 15.488281 0.355469 14.894531 C 0.472656 14.300781 0.621094 13.710938 0.796875 13.132812 C 0.972656 12.550781 1.175781 11.980469 1.410156 11.421875 C 1.640625 10.863281 1.898438 10.316406 2.183594 9.78125 C 2.46875 9.246094 2.78125 8.726562 3.117188 8.222656 C 3.453125 7.71875 3.816406 7.234375 4.199219 6.765625 C 4.585938 6.296875 4.992188 5.847656 5.417969 5.417969 C 5.847656 4.992188 6.296875 4.585938 6.765625 4.199219 C 7.234375 3.816406 7.71875 3.453125 8.222656 3.117188 C 8.726562 2.78125 9.246094 2.46875 9.78125 2.183594 C 10.316406 1.898438 10.863281 1.640625 11.421875 1.410156 C 11.980469 1.175781 12.550781 0.972656 13.132812 0.796875 C 13.710938 0.621094 14.300781 0.472656 14.894531 0.355469 C 15.488281 0.238281 16.085938 0.148438 16.691406 0.0898438 C 17.292969 0.03125 17.898438 0 18.503906 0 C 19.109375 0 19.714844 0.03125 20.316406 0.0898438 C 20.921875 0.148438 21.519531 0.238281 22.113281 0.355469 C 22.707031 0.472656 23.292969 0.621094 23.875 0.796875 C 24.453125 0.972656 25.023438 1.175781 25.585938 1.410156 C 26.144531 1.640625 26.691406 1.898438 27.226562 2.183594 C 27.761719 2.46875 28.277344 2.78125 28.78125 3.117188 C 29.285156 3.453125 29.773438 3.816406 30.242188 4.199219 C 30.710938 4.585938 31.160156 4.992188 31.585938 5.417969 C 32.015625 5.847656 32.421875 6.296875 32.804688 6.765625 C 33.191406 7.234375 33.550781 7.71875 33.886719 8.222656 C 34.226562 8.726562 34.535156 9.246094 34.820312 9.78125 C 35.105469 10.316406 35.367188 10.863281 35.597656 11.421875 C 35.828125 11.980469 36.035156 12.550781 36.210938 13.132812 C 36.386719 13.710938 36.53125 14.300781 36.652344 14.894531 C 36.769531 15.488281 36.859375 16.085938 36.917969 16.691406 C 36.976562 17.292969 37.007812 17.898438 37.007812 18.503906 Z M 37.007812 18.503906 " fill-opacity="1" fill-rule="nonzero"/></g><path fill="#ffffff" d="M 18.078125 23.605469 L 14.703125 26.984375 C 14.046875 27.640625 13.183594 27.972656 12.320312 27.972656 C 11.496094 27.972656 10.671875 27.664062 10.039062 27.054688 C 9.398438 26.4375 9.042969 25.605469 9.035156 24.710938 C 9.027344 23.816406 9.375 22.984375 10 22.351562 L 13.414062 18.933594 C 13.382812 18.6875 13.359375 18.433594 13.359375 18.179688 C 13.359375 17.5625 13.460938 16.945312 13.660156 16.382812 L 8.84375 21.203125 C 7.917969 22.125 7.402344 23.367188 7.402344 24.6875 C 7.402344 25.988281 7.902344 27.222656 8.820312 28.148438 C 9.738281 29.082031 10.964844 29.589844 12.296875 29.597656 L 12.3125 29.597656 C 13.660156 29.597656 14.917969 29.082031 15.867188 28.132812 L 20.640625 23.359375 C 20.066406 23.5625 19.46875 23.660156 18.84375 23.660156 C 18.589844 23.652344 18.332031 23.636719 18.078125 23.605469 Z M 18.078125 23.605469 " fill-opacity="1" fill-rule="nonzero"/><path fill="#ffffff" d="M 28.164062 8.859375 C 27.199219 7.894531 25.933594 7.417969 24.679688 7.417969 C 23.414062 7.417969 22.148438 7.894531 21.195312 8.859375 L 15.367188 14.6875 C 15.265625 14.789062 15.164062 14.894531 15.074219 15.003906 L 15.066406 15.011719 C 15.058594 15.019531 15.050781 15.035156 15.035156 15.042969 C 15.035156 15.042969 15.035156 15.042969 15.027344 15.050781 C 14.300781 15.929688 13.910156 17.023438 13.910156 18.179688 C 13.910156 18.449219 13.929688 18.710938 13.96875 18.972656 C 13.976562 18.988281 13.976562 19.003906 13.976562 19.011719 C 14.148438 20.015625 14.617188 20.941406 15.351562 21.664062 C 16.082031 22.398438 17.007812 22.875 18.003906 23.035156 C 18.015625 23.035156 18.03125 23.042969 18.039062 23.042969 C 18.304688 23.082031 18.566406 23.105469 18.835938 23.105469 C 19.992188 23.105469 21.085938 22.710938 21.964844 21.988281 C 21.964844 21.988281 21.964844 21.988281 21.972656 21.980469 C 21.980469 21.972656 21.996094 21.964844 22.003906 21.949219 L 22.011719 21.941406 C 22.117188 21.847656 22.226562 21.75 22.328125 21.648438 L 28.15625 15.820312 C 30.082031 13.910156 30.082031 10.785156 28.164062 8.859375 Z M 27.007812 14.679688 L 21.179688 20.507812 C 20.871094 20.816406 20.5 21.0625 20.105469 21.226562 C 19.714844 21.386719 19.28125 21.472656 18.84375 21.472656 L 18.820312 21.472656 C 17.925781 21.464844 17.09375 21.109375 16.476562 20.46875 C 15.375 19.335938 15.265625 17.578125 16.136719 16.296875 C 16.152344 16.265625 16.167969 16.238281 16.199219 16.214844 C 16.207031 16.207031 16.207031 16.207031 16.214844 16.207031 C 16.3125 16.074219 16.429688 15.9375 16.546875 15.820312 L 22.304688 10.046875 C 23.589844 8.757812 25.6875 8.726562 26.96875 9.976562 C 27.609375 10.59375 27.964844 11.425781 27.972656 12.320312 C 27.980469 13.214844 27.632812 14.054688 27.007812 14.679688 Z M 27.007812 14.679688 " fill-opacity="1" fill-rule="nonzero"/><path fill="#ffffff" d="M 19.113281 14.007812 L 17.5 15.621094 C 17.792969 15.558594 18.109375 15.535156 18.410156 15.558594 C 19.195312 15.621094 19.9375 15.960938 20.5 16.515625 C 21.0625 17.070312 21.394531 17.816406 21.457031 18.601562 C 21.480469 18.910156 21.464844 19.21875 21.394531 19.511719 L 23.003906 17.902344 C 22.820312 16.9375 22.351562 16.058594 21.648438 15.367188 C 20.953125 14.664062 20.074219 14.195312 19.113281 14.007812 Z M 19.113281 14.007812 " fill-opacity="1" fill-rule="nonzero"/><path fill="#ffffff" d="M 10.023438 14.648438 L 12.488281 15.3125 C 12.511719 15.320312 12.535156 15.320312 12.558594 15.320312 C 12.683594 15.320312 12.789062 15.242188 12.820312 15.117188 C 12.859375 14.972656 12.773438 14.824219 12.628906 14.789062 L 10.160156 14.125 C 10.015625 14.085938 9.867188 14.171875 9.828125 14.316406 C 9.792969 14.457031 9.882812 14.601562 10.023438 14.648438 Z M 10.023438 14.648438 " fill-opacity="1" fill-rule="nonzero"/><path fill="#ffffff" d="M 13.609375 14 C 13.660156 14.054688 13.730469 14.078125 13.800781 14.078125 C 13.871094 14.078125 13.9375 14.046875 13.992188 14 C 14.101562 13.894531 14.101562 13.722656 13.992188 13.617188 L 11.25 10.871094 C 11.140625 10.761719 10.972656 10.761719 10.863281 10.871094 C 10.753906 10.980469 10.753906 11.148438 10.863281 11.257812 Z M 13.609375 14 " fill-opacity="1" fill-rule="nonzero"/><path fill="#ffffff" d="M 14.765625 12.644531 C 14.792969 12.765625 14.910156 12.84375 15.027344 12.84375 C 15.050781 12.84375 15.074219 12.835938 15.09375 12.835938 C 15.242188 12.796875 15.328125 12.644531 15.289062 12.503906 L 14.625 10.039062 C 14.585938 9.890625 14.433594 9.808594 14.292969 9.84375 C 14.148438 9.882812 14.0625 10.039062 14.101562 10.175781 Z M 14.765625 12.644531 " fill-opacity="1" fill-rule="nonzero"/><path fill="#ffffff" d="M 22.242188 24.386719 C 22.203125 24.238281 22.050781 24.15625 21.910156 24.191406 C 21.765625 24.230469 21.679688 24.386719 21.71875 24.523438 L 22.382812 26.992188 C 22.410156 27.113281 22.527344 27.191406 22.644531 27.191406 C 22.667969 27.191406 22.691406 27.183594 22.710938 27.183594 C 22.859375 27.144531 22.945312 26.992188 22.90625 26.851562 Z M 22.242188 24.386719 " fill-opacity="1" fill-rule="nonzero"/><path fill="#ffffff" d="M 23.40625 23.027344 C 23.296875 22.921875 23.128906 22.921875 23.019531 23.027344 C 22.914062 23.136719 22.914062 23.304688 23.019531 23.414062 L 25.765625 26.160156 C 25.820312 26.214844 25.890625 26.234375 25.957031 26.234375 C 26.027344 26.234375 26.097656 26.207031 26.152344 26.160156 C 26.257812 26.050781 26.257812 25.882812 26.152344 25.773438 Z M 23.40625 23.027344 " fill-opacity="1" fill-rule="nonzero"/><path fill="#ffffff" d="M 26.984375 22.382812 L 24.515625 21.726562 C 24.371094 21.6875 24.222656 21.773438 24.183594 21.917969 C 24.148438 22.066406 24.230469 22.210938 24.378906 22.25 L 26.84375 22.914062 C 26.867188 22.921875 26.890625 22.921875 26.914062 22.921875 C 27.039062 22.921875 27.144531 22.84375 27.175781 22.71875 C 27.214844 22.574219 27.128906 22.425781 26.984375 22.382812 Z M 26.984375 22.382812 " fill-opacity="1" fill-rule="nonzero"/></svg>