<svg xmlns="http://www.w3.org/2000/svg" xmlns:xlink="http://www.w3.org/1999/xlink" width="50" zoomAndPan="magnify" viewBox="0 0 37.5 37.499999" height="50" preserveAspectRatio="xMidYMid meet" version="1.0"><defs><clipPath id="f28e231762"><path d="M 0 0 L 37.007812 0 L 37.007812 37 L 0 37 Z M 0 0 " clip-rule="nonzero"/></clipPath><clipPath id="0cbc560b0e"><path d="M 10 6 L 28 6 L 28 37.007812 L 10 37.007812 Z M 10 6 " clip-rule="nonzero"/></clipPath></defs><g clip-path="url(#f28e231762)"><path fill="#0866ff" d="M 37.011719 18.507812 C 37.011719 8.285156 28.726562 0 18.507812 0 C 8.285156 0 0 8.285156 0 18.507812 C 0 27.183594 5.972656 34.46875 14.035156 36.46875 L 14.035156 24.164062 L 10.21875 24.164062 L 10.21875 18.507812 L 14.035156 18.507812 L 14.035156 16.070312 C 14.035156 9.773438 16.886719 6.851562 23.070312 6.851562 C 24.242188 6.851562 26.265625 7.082031 27.09375 7.3125 L 27.09375 12.4375 C 26.65625 12.390625 25.894531 12.367188 24.953125 12.367188 C 21.917969 12.367188 20.746094 13.515625 20.746094 16.503906 L 20.746094 18.503906 L 26.792969 18.503906 L 25.753906 24.160156 L 20.746094 24.160156 L 20.746094 36.875 C 29.910156 35.769531 37.011719 27.964844 37.011719 18.503906 Z M 37.011719 18.507812 " fill-opacity="1" fill-rule="nonzero"/></g><g clip-path="url(#0cbc560b0e)"><path fill="#ffffff" d="M 25.753906 24.160156 L 26.792969 18.503906 L 20.75 18.503906 L 20.75 16.503906 C 20.75 13.515625 21.921875 12.367188 24.957031 12.367188 C 25.898438 12.367188 26.65625 12.390625 27.09375 12.4375 L 27.09375 7.3125 C 26.265625 7.082031 24.242188 6.851562 23.070312 6.851562 C 16.886719 6.851562 14.035156 9.773438 14.035156 16.070312 L 14.035156 18.507812 L 10.21875 18.507812 L 10.21875 24.164062 L 14.035156 24.164062 L 14.035156 36.46875 C 15.46875 36.824219 16.964844 37.011719 18.507812 37.011719 C 19.265625 37.011719 20.015625 36.964844 20.75 36.878906 L 20.75 24.164062 L 25.757812 24.164062 Z M 25.753906 24.160156 " fill-opacity="1" fill-rule="nonzero"/></g></svg>