<svg xmlns="http://www.w3.org/2000/svg" xmlns:xlink="http://www.w3.org/1999/xlink" width="50" zoomAndPan="magnify" viewBox="0 0 37.5 37.499999" height="50" preserveAspectRatio="xMidYMid meet" version="1.0"><defs><clipPath id="8ab739623a"><path d="M 0 0 L 37.007812 0 L 37.007812 37.007812 L 0 37.007812 Z M 0 0 " clip-rule="nonzero"/></clipPath></defs><g clip-path="url(#8ab739623a)"><path fill="#fffc00" d="M 37.003906 18.503906 C 37.003906 19.109375 36.976562 19.714844 36.914062 20.316406 C 36.855469 20.921875 36.765625 21.519531 36.648438 22.113281 C 36.53125 22.707031 36.382812 23.292969 36.207031 23.875 C 36.03125 24.453125 35.828125 25.023438 35.597656 25.585938 C 35.363281 26.144531 35.105469 26.691406 34.820312 27.226562 C 34.535156 27.761719 34.222656 28.28125 33.886719 28.785156 C 33.550781 29.289062 33.1875 29.773438 32.804688 30.242188 C 32.421875 30.710938 32.011719 31.160156 31.585938 31.585938 C 31.15625 32.015625 30.707031 32.421875 30.238281 32.808594 C 29.769531 33.191406 29.285156 33.550781 28.78125 33.886719 C 28.277344 34.226562 27.757812 34.535156 27.222656 34.820312 C 26.6875 35.109375 26.140625 35.367188 25.582031 35.597656 C 25.023438 35.832031 24.453125 36.035156 23.871094 36.210938 C 23.292969 36.386719 22.707031 36.53125 22.109375 36.652344 C 21.515625 36.769531 20.917969 36.859375 20.316406 36.917969 C 19.710938 36.976562 19.105469 37.007812 18.5 37.007812 C 17.894531 37.007812 17.289062 36.976562 16.6875 36.917969 C 16.085938 36.859375 15.484375 36.769531 14.890625 36.652344 C 14.296875 36.53125 13.710938 36.386719 13.128906 36.210938 C 12.550781 36.035156 11.980469 35.832031 11.421875 35.597656 C 10.859375 35.367188 10.3125 35.109375 9.777344 34.820312 C 9.246094 34.535156 8.726562 34.226562 8.222656 33.886719 C 7.71875 33.550781 7.230469 33.191406 6.761719 32.808594 C 6.292969 32.421875 5.847656 32.015625 5.417969 31.585938 C 4.988281 31.160156 4.582031 30.710938 4.199219 30.242188 C 3.8125 29.773438 3.453125 29.289062 3.117188 28.785156 C 2.78125 28.28125 2.46875 27.761719 2.183594 27.226562 C 1.898438 26.691406 1.636719 26.144531 1.40625 25.585938 C 1.175781 25.023438 0.96875 24.453125 0.792969 23.875 C 0.617188 23.292969 0.472656 22.707031 0.355469 22.113281 C 0.234375 21.519531 0.148438 20.921875 0.0859375 20.316406 C 0.0273438 19.714844 -0.00390625 19.109375 -0.00390625 18.503906 C -0.00390625 17.898438 0.0273438 17.292969 0.0859375 16.691406 C 0.148438 16.085938 0.234375 15.488281 0.355469 14.894531 C 0.472656 14.300781 0.617188 13.710938 0.792969 13.132812 C 0.96875 12.550781 1.175781 11.980469 1.40625 11.421875 C 1.636719 10.863281 1.898438 10.316406 2.183594 9.78125 C 2.46875 9.246094 2.78125 8.726562 3.117188 8.222656 C 3.453125 7.71875 3.8125 7.234375 4.199219 6.765625 C 4.582031 6.296875 4.988281 5.847656 5.417969 5.417969 C 5.847656 4.992188 6.292969 4.585938 6.761719 4.199219 C 7.230469 3.816406 7.71875 3.457031 8.222656 3.117188 C 8.726562 2.78125 9.246094 2.46875 9.777344 2.183594 C 10.3125 1.898438 10.859375 1.640625 11.421875 1.410156 C 11.980469 1.175781 12.550781 0.972656 13.128906 0.796875 C 13.710938 0.621094 14.296875 0.472656 14.890625 0.355469 C 15.484375 0.238281 16.085938 0.148438 16.6875 0.0898438 C 17.289062 0.03125 17.894531 0 18.5 0 C 19.105469 0 19.710938 0.03125 20.316406 0.0898438 C 20.917969 0.148438 21.515625 0.238281 22.109375 0.355469 C 22.707031 0.472656 23.292969 0.621094 23.871094 0.796875 C 24.453125 0.972656 25.023438 1.175781 25.582031 1.410156 C 26.140625 1.640625 26.6875 1.898438 27.222656 2.183594 C 27.757812 2.46875 28.277344 2.78125 28.78125 3.117188 C 29.285156 3.457031 29.769531 3.816406 30.238281 4.199219 C 30.707031 4.585938 31.15625 4.992188 31.585938 5.417969 C 32.011719 5.847656 32.421875 6.296875 32.804688 6.765625 C 33.1875 7.234375 33.550781 7.71875 33.886719 8.222656 C 34.222656 8.726562 34.535156 9.246094 34.820312 9.78125 C 35.105469 10.316406 35.363281 10.863281 35.597656 11.421875 C 35.828125 11.980469 36.03125 12.550781 36.207031 13.132812 C 36.382812 13.710938 36.53125 14.300781 36.648438 14.894531 C 36.765625 15.488281 36.855469 16.085938 36.914062 16.691406 C 36.976562 17.292969 37.003906 17.898438 37.003906 18.503906 Z M 37.003906 18.503906 " fill-opacity="1" fill-rule="nonzero"/></g><path fill="#ffffff" d="M 28.816406 23.746094 C 28.726562 23.449219 28.292969 23.238281 28.292969 23.238281 C 28.253906 23.214844 28.21875 23.199219 28.1875 23.183594 C 27.46875 22.835938 26.832031 22.414062 26.292969 21.941406 C 25.863281 21.558594 25.492188 21.136719 25.195312 20.691406 C 24.835938 20.148438 24.664062 19.691406 24.589844 19.445312 C 24.550781 19.285156 24.554688 19.21875 24.589844 19.136719 C 24.617188 19.066406 24.703125 19 24.742188 18.964844 C 24.984375 18.792969 25.375 18.542969 25.617188 18.386719 C 25.824219 18.253906 26 18.136719 26.105469 18.0625 C 26.441406 17.828125 26.675781 17.585938 26.8125 17.328125 C 26.984375 16.992188 27.007812 16.621094 26.871094 16.257812 C 26.6875 15.769531 26.230469 15.480469 25.648438 15.480469 C 25.519531 15.480469 25.386719 15.492188 25.253906 15.519531 C 24.917969 15.59375 24.605469 15.710938 24.339844 15.816406 C 24.320312 15.824219 24.296875 15.808594 24.300781 15.789062 C 24.328125 15.132812 24.359375 14.253906 24.289062 13.417969 C 24.222656 12.660156 24.066406 12.023438 23.8125 11.46875 C 23.558594 10.910156 23.226562 10.5 22.964844 10.199219 C 22.71875 9.917969 22.285156 9.496094 21.625 9.121094 C 20.703125 8.59375 19.652344 8.324219 18.5 8.324219 C 17.351562 8.324219 16.304688 8.59375 15.378906 9.121094 C 14.683594 9.519531 14.238281 9.96875 14.035156 10.199219 C 13.777344 10.5 13.445312 10.910156 13.1875 11.46875 C 12.933594 12.023438 12.777344 12.660156 12.714844 13.417969 C 12.640625 14.257812 12.671875 15.066406 12.699219 15.789062 C 12.699219 15.808594 12.683594 15.824219 12.660156 15.816406 C 12.394531 15.710938 12.082031 15.59375 11.746094 15.519531 C 11.617188 15.492188 11.484375 15.480469 11.351562 15.480469 C 10.773438 15.480469 10.316406 15.769531 10.128906 16.257812 C 9.992188 16.621094 10.011719 16.992188 10.1875 17.328125 C 10.328125 17.585938 10.554688 17.828125 10.894531 18.0625 C 10.996094 18.136719 11.175781 18.253906 11.386719 18.386719 C 11.617188 18.539062 12 18.785156 12.242188 18.957031 C 12.273438 18.976562 12.378906 19.054688 12.410156 19.136719 C 12.441406 19.222656 12.449219 19.285156 12.40625 19.457031 C 12.328125 19.707031 12.160156 20.15625 11.804688 20.691406 C 11.507812 21.140625 11.136719 21.558594 10.707031 21.941406 C 10.171875 22.414062 9.53125 22.835938 8.8125 23.183594 C 8.78125 23.199219 8.738281 23.21875 8.695312 23.246094 C 8.695312 23.246094 8.265625 23.464844 8.183594 23.746094 C 8.0625 24.164062 8.382812 24.558594 8.707031 24.769531 C 9.238281 25.113281 9.886719 25.296875 10.265625 25.398438 C 10.371094 25.425781 10.464844 25.453125 10.550781 25.476562 C 10.601562 25.496094 10.738281 25.546875 10.796875 25.621094 C 10.871094 25.714844 10.878906 25.832031 10.90625 25.960938 C 10.945312 26.183594 11.039062 26.457031 11.308594 26.644531 C 11.609375 26.851562 11.988281 26.867188 12.472656 26.886719 C 12.976562 26.90625 13.605469 26.929688 14.324219 27.167969 C 14.65625 27.277344 14.957031 27.460938 15.308594 27.675781 C 16.035156 28.125 16.945312 28.683594 18.492188 28.683594 C 20.046875 28.683594 20.960938 28.125 21.695312 27.671875 C 22.042969 27.460938 22.339844 27.277344 22.667969 27.167969 C 23.386719 26.929688 24.011719 26.90625 24.515625 26.886719 C 25 26.867188 25.382812 26.855469 25.683594 26.648438 C 25.972656 26.445312 26.058594 26.144531 26.097656 25.917969 C 26.117188 25.808594 26.128906 25.707031 26.195312 25.625 C 26.25 25.554688 26.375 25.503906 26.433594 25.484375 C 26.519531 25.457031 26.621094 25.433594 26.730469 25.402344 C 27.105469 25.300781 27.578125 25.183594 28.148438 24.859375 C 28.839844 24.464844 28.886719 23.984375 28.816406 23.746094 Z M 28.816406 23.746094 " fill-opacity="1" fill-rule="nonzero"/><path fill="#000000" d="M 29.414062 23.515625 C 29.261719 23.097656 28.96875 22.878906 28.636719 22.695312 C 28.574219 22.65625 28.515625 22.625 28.46875 22.605469 C 28.371094 22.554688 28.269531 22.503906 28.167969 22.453125 C 27.136719 21.90625 26.332031 21.214844 25.769531 20.398438 C 25.582031 20.117188 25.453125 19.871094 25.359375 19.664062 C 25.3125 19.527344 25.3125 19.453125 25.347656 19.382812 C 25.375 19.328125 25.445312 19.269531 25.484375 19.242188 C 25.660156 19.125 25.84375 19.007812 25.964844 18.929688 C 26.1875 18.785156 26.363281 18.671875 26.476562 18.59375 C 26.898438 18.296875 27.195312 17.980469 27.382812 17.628906 C 27.644531 17.132812 27.675781 16.566406 27.472656 16.035156 C 27.195312 15.296875 26.496094 14.835938 25.648438 14.835938 C 25.472656 14.835938 25.296875 14.855469 25.117188 14.894531 C 25.070312 14.90625 25.027344 14.914062 24.980469 14.925781 C 24.992188 14.425781 24.976562 13.886719 24.933594 13.363281 C 24.773438 11.515625 24.125 10.550781 23.453125 9.777344 C 23.171875 9.457031 22.683594 8.988281 21.949219 8.566406 C 20.925781 7.976562 19.765625 7.683594 18.5 7.683594 C 17.242188 7.683594 16.082031 7.976562 15.058594 8.5625 C 14.320312 8.984375 13.828125 9.457031 13.550781 9.777344 C 12.878906 10.546875 12.230469 11.515625 12.070312 13.359375 C 12.027344 13.886719 12.015625 14.421875 12.023438 14.925781 C 11.976562 14.914062 11.929688 14.902344 11.886719 14.890625 C 11.707031 14.855469 11.53125 14.832031 11.355469 14.832031 C 10.507812 14.832031 9.808594 15.292969 9.53125 16.03125 C 9.328125 16.5625 9.359375 17.132812 9.621094 17.628906 C 9.808594 17.980469 10.105469 18.292969 10.527344 18.589844 C 10.640625 18.671875 10.816406 18.785156 11.039062 18.925781 C 11.15625 19.003906 11.332031 19.117188 11.503906 19.230469 C 11.53125 19.246094 11.621094 19.316406 11.652344 19.382812 C 11.691406 19.453125 11.691406 19.53125 11.636719 19.679688 C 11.546875 19.878906 11.414062 20.125 11.230469 20.394531 C 10.683594 21.195312 9.898438 21.875 8.902344 22.414062 C 8.371094 22.695312 7.820312 22.882812 7.589844 23.511719 C 7.414062 23.988281 7.53125 24.535156 7.972656 24.988281 C 8.121094 25.148438 8.304688 25.285156 8.535156 25.414062 C 9.082031 25.714844 9.546875 25.863281 9.910156 25.964844 C 9.976562 25.984375 10.121094 26.03125 10.1875 26.089844 C 10.351562 26.230469 10.328125 26.445312 10.542969 26.757812 C 10.675781 26.953125 10.824219 27.085938 10.949219 27.171875 C 11.402344 27.484375 11.914062 27.507812 12.453125 27.527344 C 12.941406 27.546875 13.496094 27.566406 14.125 27.777344 C 14.386719 27.863281 14.660156 28.03125 14.972656 28.222656 C 15.730469 28.6875 16.765625 29.324219 18.5 29.324219 C 20.234375 29.324219 21.273438 28.683594 22.035156 28.21875 C 22.351562 28.027344 22.621094 27.859375 22.875 27.777344 C 23.503906 27.566406 24.058594 27.546875 24.546875 27.527344 C 25.085938 27.507812 25.59375 27.484375 26.050781 27.171875 C 26.191406 27.074219 26.371094 26.914062 26.515625 26.667969 C 26.667969 26.402344 26.667969 26.21875 26.8125 26.089844 C 26.871094 26.039062 27.003906 25.996094 27.074219 25.972656 C 27.441406 25.871094 27.914062 25.722656 28.46875 25.417969 C 28.714844 25.28125 28.90625 25.132812 29.058594 24.964844 C 29.058594 24.960938 29.0625 24.960938 29.066406 24.957031 C 29.480469 24.507812 29.585938 23.980469 29.414062 23.515625 Z M 27.875 24.339844 C 26.933594 24.859375 26.308594 24.804688 25.824219 25.117188 C 25.410156 25.382812 25.652344 25.957031 25.355469 26.160156 C 24.984375 26.417969 23.898438 26.144531 22.492188 26.609375 C 21.332031 26.992188 20.589844 28.09375 18.503906 28.09375 C 16.410156 28.09375 15.691406 26.996094 14.515625 26.609375 C 13.109375 26.144531 12.019531 26.417969 11.652344 26.160156 C 11.351562 25.957031 11.59375 25.382812 11.183594 25.117188 C 10.699219 24.804688 10.074219 24.859375 9.132812 24.339844 C 8.535156 24.011719 8.871094 23.808594 9.074219 23.710938 C 12.476562 22.0625 13.019531 19.519531 13.042969 19.328125 C 13.074219 19.101562 13.105469 18.917969 12.855469 18.683594 C 12.613281 18.460938 11.53125 17.792969 11.234375 17.582031 C 10.738281 17.238281 10.523438 16.894531 10.683594 16.46875 C 10.796875 16.175781 11.070312 16.066406 11.359375 16.066406 C 11.449219 16.066406 11.542969 16.074219 11.628906 16.09375 C 12.171875 16.210938 12.699219 16.484375 13.003906 16.558594 C 13.046875 16.570312 13.085938 16.574219 13.117188 16.574219 C 13.28125 16.574219 13.335938 16.492188 13.324219 16.304688 C 13.289062 15.710938 13.203125 14.550781 13.300781 13.46875 C 13.429688 11.976562 13.910156 11.238281 14.480469 10.582031 C 14.753906 10.269531 16.042969 8.910156 18.503906 8.910156 C 20.972656 8.910156 22.257812 10.269531 22.53125 10.582031 C 23.101562 11.234375 23.582031 11.972656 23.710938 13.46875 C 23.804688 14.550781 23.722656 15.710938 23.683594 16.304688 C 23.671875 16.5 23.730469 16.574219 23.894531 16.574219 C 23.925781 16.574219 23.964844 16.570312 24.003906 16.558594 C 24.308594 16.484375 24.835938 16.210938 25.382812 16.09375 C 25.46875 16.074219 25.5625 16.066406 25.652344 16.066406 C 25.941406 16.066406 26.214844 16.175781 26.328125 16.46875 C 26.488281 16.894531 26.269531 17.238281 25.777344 17.582031 C 25.476562 17.792969 24.398438 18.460938 24.15625 18.683594 C 23.902344 18.917969 23.9375 19.097656 23.964844 19.328125 C 23.988281 19.519531 24.53125 22.0625 27.9375 23.710938 C 28.132812 23.808594 28.472656 24.011719 27.875 24.339844 Z M 27.875 24.339844 " fill-opacity="1" fill-rule="nonzero"/></svg>