<svg xmlns="http://www.w3.org/2000/svg" xmlns:xlink="http://www.w3.org/1999/xlink" width="50" zoomAndPan="magnify" viewBox="0 0 37.5 37.499999" height="50" preserveAspectRatio="xMidYMid meet" version="1.0"><defs><clipPath id="3553a06983"><path d="M 0 0 L 37.007812 0 L 37.007812 37.007812 L 0 37.007812 Z M 0 0 " clip-rule="nonzero"/></clipPath></defs><g clip-path="url(#3553a06983)"><path fill="#000000" d="M 37.011719 18.507812 C 37.011719 19.113281 36.984375 19.71875 36.925781 20.320312 C 36.863281 20.921875 36.777344 21.523438 36.65625 22.117188 C 36.539062 22.710938 36.390625 23.296875 36.214844 23.878906 C 36.039062 24.457031 35.835938 25.027344 35.605469 25.589844 C 35.371094 26.148438 35.113281 26.695312 34.828125 27.230469 C 34.542969 27.765625 34.230469 28.285156 33.894531 28.789062 C 33.558594 29.292969 33.195312 29.777344 32.8125 30.246094 C 32.429688 30.714844 32.019531 31.164062 31.59375 31.59375 C 31.164062 32.019531 30.714844 32.429688 30.246094 32.8125 C 29.777344 33.195312 29.292969 33.558594 28.789062 33.894531 C 28.285156 34.230469 27.765625 34.542969 27.230469 34.828125 C 26.695312 35.113281 26.148438 35.371094 25.589844 35.605469 C 25.027344 35.835938 24.457031 36.039062 23.878906 36.214844 C 23.296875 36.390625 22.710938 36.539062 22.117188 36.65625 C 21.523438 36.777344 20.921875 36.863281 20.320312 36.925781 C 19.71875 36.984375 19.113281 37.011719 18.507812 37.011719 C 17.902344 37.011719 17.296875 36.984375 16.691406 36.925781 C 16.089844 36.863281 15.492188 36.777344 14.894531 36.65625 C 14.300781 36.539062 13.714844 36.390625 13.132812 36.214844 C 12.554688 36.039062 11.984375 35.835938 11.425781 35.605469 C 10.863281 35.371094 10.316406 35.113281 9.78125 34.828125 C 9.25 34.542969 8.730469 34.230469 8.226562 33.894531 C 7.722656 33.558594 7.234375 33.195312 6.765625 32.8125 C 6.296875 32.429688 5.847656 32.019531 5.421875 31.59375 C 4.992188 31.164062 4.585938 30.714844 4.199219 30.246094 C 3.816406 29.777344 3.457031 29.292969 3.117188 28.789062 C 2.78125 28.285156 2.472656 27.765625 2.183594 27.230469 C 1.898438 26.695312 1.640625 26.148438 1.410156 25.589844 C 1.175781 25.027344 0.972656 24.457031 0.796875 23.878906 C 0.621094 23.296875 0.472656 22.710938 0.355469 22.117188 C 0.238281 21.523438 0.148438 20.921875 0.0898438 20.320312 C 0.03125 19.71875 0 19.113281 0 18.507812 C 0 17.902344 0.03125 17.296875 0.0898438 16.691406 C 0.148438 16.089844 0.238281 15.492188 0.355469 14.894531 C 0.472656 14.300781 0.621094 13.714844 0.796875 13.132812 C 0.972656 12.554688 1.175781 11.984375 1.410156 11.425781 C 1.640625 10.863281 1.898438 10.316406 2.183594 9.78125 C 2.472656 9.25 2.78125 8.730469 3.117188 8.226562 C 3.457031 7.722656 3.816406 7.234375 4.199219 6.765625 C 4.585938 6.296875 4.992188 5.847656 5.421875 5.421875 C 5.847656 4.992188 6.296875 4.585938 6.765625 4.199219 C 7.234375 3.816406 7.722656 3.457031 8.226562 3.117188 C 8.730469 2.78125 9.25 2.472656 9.78125 2.183594 C 10.316406 1.898438 10.863281 1.640625 11.425781 1.410156 C 11.984375 1.175781 12.554688 0.972656 13.132812 0.796875 C 13.714844 0.621094 14.300781 0.472656 14.894531 0.355469 C 15.492188 0.238281 16.089844 0.148438 16.691406 0.0898438 C 17.296875 0.03125 17.902344 0 18.507812 0 C 19.113281 0 19.71875 0.03125 20.320312 0.0898438 C 20.921875 0.148438 21.523438 0.238281 22.117188 0.355469 C 22.710938 0.472656 23.296875 0.621094 23.878906 0.796875 C 24.457031 0.972656 25.027344 1.175781 25.589844 1.410156 C 26.148438 1.640625 26.695312 1.898438 27.230469 2.183594 C 27.765625 2.472656 28.285156 2.78125 28.789062 3.117188 C 29.292969 3.457031 29.777344 3.816406 30.246094 4.199219 C 30.714844 4.585938 31.164062 4.992188 31.59375 5.421875 C 32.019531 5.847656 32.429688 6.296875 32.8125 6.765625 C 33.195312 7.234375 33.558594 7.722656 33.894531 8.226562 C 34.230469 8.730469 34.542969 9.25 34.828125 9.78125 C 35.113281 10.316406 35.371094 10.863281 35.605469 11.425781 C 35.835938 11.984375 36.039062 12.554688 36.214844 13.132812 C 36.390625 13.714844 36.539062 14.300781 36.65625 14.894531 C 36.777344 15.492188 36.863281 16.089844 36.925781 16.691406 C 36.984375 17.296875 37.011719 17.902344 37.011719 18.507812 Z M 37.011719 18.507812 " fill-opacity="1" fill-rule="nonzero"/></g><path fill="#25f4ee" d="M 16.050781 15.859375 L 16.050781 14.855469 C 15.714844 14.8125 15.371094 14.78125 15.023438 14.78125 C 10.820312 14.78125 7.402344 18.199219 7.402344 22.402344 C 7.402344 24.980469 8.691406 27.261719 10.65625 28.640625 C 9.386719 27.28125 8.636719 25.457031 8.636719 23.453125 C 8.636719 19.3125 11.933594 15.957031 16.050781 15.859375 Z M 16.050781 15.859375 " fill-opacity="1" fill-rule="nonzero"/><path fill="#25f4ee" d="M 16.230469 26.953125 C 18.105469 26.953125 19.65625 25.441406 19.722656 23.585938 L 19.742188 7.015625 L 22.746094 7.015625 C 22.746094 7.015625 22.738281 6.992188 22.738281 6.992188 C 22.675781 6.652344 22.644531 6.300781 22.644531 5.941406 L 18.503906 5.941406 L 18.496094 22.535156 C 18.425781 24.394531 16.898438 25.882812 15.023438 25.882812 C 14.441406 25.882812 13.890625 25.738281 13.410156 25.484375 C 14.042969 26.359375 15.070312 26.957031 16.230469 26.957031 Z M 16.230469 26.953125 " fill-opacity="1" fill-rule="nonzero"/><path fill="#25f4ee" d="M 28.402344 12.671875 L 28.402344 11.699219 C 27.246094 11.699219 26.171875 11.355469 25.265625 10.765625 C 26.070312 11.6875 27.164062 12.40625 28.402344 12.667969 Z M 28.402344 12.671875 " fill-opacity="1" fill-rule="nonzero"/><path fill="#fe2c55" d="M 25.265625 10.765625 C 24.386719 9.753906 23.851562 8.433594 23.851562 6.992188 L 22.722656 6.992188 C 23.015625 8.566406 23.96875 9.921875 25.265625 10.765625 Z M 25.265625 10.765625 " fill-opacity="1" fill-rule="nonzero"/><path fill="#fe2c55" d="M 15.023438 18.890625 C 13.101562 18.890625 11.519531 20.480469 11.519531 22.402344 C 11.519531 23.738281 12.300781 24.898438 13.40625 25.480469 C 12.996094 24.910156 12.75 24.210938 12.75 23.453125 C 12.75 21.535156 14.308594 19.972656 16.230469 19.972656 C 16.585938 19.972656 16.929688 20.03125 17.257812 20.132812 L 17.257812 15.90625 C 16.917969 15.859375 16.578125 15.832031 16.230469 15.832031 C 16.167969 15.832031 16.109375 15.835938 16.050781 15.839844 L 16.035156 15.839844 C 16.035156 15.839844 16.023438 19.039062 16.023438 19.039062 C 15.695312 18.933594 15.382812 18.890625 15.023438 18.890625 Z M 15.023438 18.890625 " fill-opacity="1" fill-rule="nonzero"/><path fill="#fe2c55" d="M 28.402344 12.621094 L 28.382812 12.617188 L 28.382812 15.816406 C 26.238281 15.816406 24.242188 15.109375 22.617188 13.941406 L 22.617188 22.402344 C 22.617188 26.601562 19.226562 30 15.023438 30 C 13.398438 30 11.894531 29.507812 10.65625 28.640625 C 12.046875 30.132812 14.03125 31.070312 16.230469 31.070312 C 20.429688 31.070312 23.847656 27.652344 23.847656 23.453125 L 23.847656 15.039062 C 25.472656 16.203125 27.460938 16.890625 29.609375 16.890625 L 29.609375 12.75 C 29.195312 12.75 28.792969 12.707031 28.402344 12.621094 Z M 28.402344 12.621094 " fill-opacity="1" fill-rule="nonzero"/><path fill="#ffffff" d="M 22.644531 22.402344 L 22.644531 13.988281 C 24.265625 15.152344 26.257812 15.839844 28.402344 15.839844 L 28.402344 12.621094 C 27.160156 12.355469 26.070312 11.691406 25.265625 10.765625 C 23.96875 9.921875 23.03125 8.566406 22.738281 6.992188 L 19.707031 6.992188 L 19.703125 23.582031 C 19.632812 25.441406 18.101562 26.933594 16.226562 26.933594 C 15.066406 26.933594 14.039062 26.359375 13.40625 25.480469 C 12.296875 24.898438 11.539062 23.738281 11.539062 22.398438 C 11.539062 20.480469 13.101562 18.917969 15.019531 18.917969 C 15.378906 18.917969 15.722656 18.976562 16.046875 19.082031 L 16.046875 15.835938 C 11.929688 15.929688 8.609375 19.308594 8.609375 23.453125 C 8.609375 25.453125 9.386719 27.277344 10.652344 28.640625 C 11.890625 29.511719 13.394531 30.019531 15.019531 30.019531 C 19.222656 30.019531 22.640625 26.601562 22.640625 22.402344 Z M 22.644531 22.402344 " fill-opacity="1" fill-rule="nonzero"/></svg>