<svg xmlns="http://www.w3.org/2000/svg" xmlns:xlink="http://www.w3.org/1999/xlink" width="50" zoomAndPan="magnify" viewBox="0 0 37.5 37.499999" height="50" preserveAspectRatio="xMidYMid meet" version="1.0"><defs><clipPath id="d6714e5009"><path d="M 0 0 L 37.007812 0 L 37.007812 37.007812 L 0 37.007812 Z M 0 0 " clip-rule="nonzero"/></clipPath></defs><g clip-path="url(#d6714e5009)"><path fill="#10c03e" d="M 37.003906 18.5 C 37.003906 19.105469 36.972656 19.710938 36.914062 20.3125 C 36.855469 20.917969 36.765625 21.515625 36.648438 22.109375 C 36.527344 22.703125 36.382812 23.292969 36.207031 23.871094 C 36.03125 24.453125 35.828125 25.019531 35.59375 25.582031 C 35.363281 26.140625 35.105469 26.6875 34.816406 27.222656 C 34.53125 27.757812 34.222656 28.277344 33.886719 28.78125 C 33.546875 29.285156 33.1875 29.769531 32.804688 30.238281 C 32.417969 30.707031 32.011719 31.15625 31.582031 31.582031 C 31.15625 32.011719 30.707031 32.417969 30.238281 32.804688 C 29.769531 33.1875 29.285156 33.546875 28.78125 33.886719 C 28.277344 34.222656 27.757812 34.53125 27.222656 34.816406 C 26.6875 35.105469 26.140625 35.363281 25.582031 35.59375 C 25.019531 35.828125 24.453125 36.03125 23.871094 36.207031 C 23.292969 36.382812 22.703125 36.527344 22.109375 36.648438 C 21.515625 36.765625 20.917969 36.855469 20.3125 36.914062 C 19.710938 36.972656 19.105469 37.003906 18.5 37.003906 C 17.894531 37.003906 17.289062 36.972656 16.6875 36.914062 C 16.085938 36.855469 15.484375 36.765625 14.890625 36.648438 C 14.296875 36.527344 13.710938 36.382812 13.128906 36.207031 C 12.550781 36.03125 11.980469 35.828125 11.421875 35.59375 C 10.859375 35.363281 10.3125 35.105469 9.777344 34.816406 C 9.246094 34.53125 8.726562 34.222656 8.222656 33.886719 C 7.71875 33.546875 7.230469 33.1875 6.761719 32.804688 C 6.292969 32.417969 5.847656 32.011719 5.417969 31.582031 C 4.988281 31.15625 4.582031 30.707031 4.199219 30.238281 C 3.8125 29.769531 3.453125 29.285156 3.117188 28.78125 C 2.78125 28.277344 2.46875 27.757812 2.183594 27.222656 C 1.898438 26.6875 1.636719 26.140625 1.40625 25.582031 C 1.175781 25.019531 0.972656 24.453125 0.792969 23.871094 C 0.617188 23.292969 0.472656 22.703125 0.355469 22.109375 C 0.234375 21.515625 0.148438 20.917969 0.0859375 20.3125 C 0.0273438 19.710938 0 19.105469 0 18.5 C 0 17.894531 0.0273438 17.289062 0.0859375 16.6875 C 0.148438 16.085938 0.234375 15.484375 0.355469 14.890625 C 0.472656 14.296875 0.617188 13.710938 0.792969 13.128906 C 0.972656 12.550781 1.175781 11.980469 1.40625 11.421875 C 1.636719 10.859375 1.898438 10.3125 2.183594 9.777344 C 2.46875 9.246094 2.78125 8.726562 3.117188 8.222656 C 3.453125 7.71875 3.8125 7.230469 4.199219 6.761719 C 4.582031 6.292969 4.988281 5.847656 5.417969 5.417969 C 5.847656 4.988281 6.292969 4.582031 6.761719 4.199219 C 7.230469 3.8125 7.71875 3.453125 8.222656 3.117188 C 8.726562 2.78125 9.246094 2.46875 9.777344 2.183594 C 10.3125 1.898438 10.859375 1.636719 11.421875 1.40625 C 11.980469 1.175781 12.550781 0.972656 13.128906 0.792969 C 13.710938 0.617188 14.296875 0.472656 14.890625 0.355469 C 15.484375 0.234375 16.085938 0.148438 16.6875 0.0859375 C 17.289062 0.0273438 17.894531 0 18.5 0 C 19.105469 0 19.710938 0.0273438 20.3125 0.0859375 C 20.917969 0.148438 21.515625 0.234375 22.109375 0.355469 C 22.703125 0.472656 23.292969 0.617188 23.871094 0.792969 C 24.453125 0.972656 25.019531 1.175781 25.582031 1.40625 C 26.140625 1.636719 26.6875 1.898438 27.222656 2.183594 C 27.757812 2.46875 28.277344 2.78125 28.78125 3.117188 C 29.285156 3.453125 29.769531 3.8125 30.238281 4.199219 C 30.707031 4.582031 31.15625 4.988281 31.582031 5.417969 C 32.011719 5.847656 32.417969 6.292969 32.804688 6.761719 C 33.1875 7.230469 33.546875 7.71875 33.886719 8.222656 C 34.222656 8.726562 34.53125 9.246094 34.816406 9.777344 C 35.105469 10.3125 35.363281 10.859375 35.59375 11.421875 C 35.828125 11.980469 36.03125 12.550781 36.207031 13.128906 C 36.382812 13.710938 36.527344 14.296875 36.648438 14.890625 C 36.765625 15.484375 36.855469 16.085938 36.914062 16.6875 C 36.972656 17.289062 37.003906 17.894531 37.003906 18.5 Z M 37.003906 18.5 " fill-opacity="1" fill-rule="nonzero"/></g><path fill="#ffffff" d="M 18.5 33.707031 C 14.4375 33.707031 10.621094 32.125 7.75 29.253906 C 4.875 26.378906 3.292969 22.5625 3.292969 18.5 C 3.292969 14.4375 4.875 10.621094 7.75 7.75 C 10.621094 4.875 14.4375 3.292969 18.5 3.292969 C 22.5625 3.292969 26.378906 4.875 29.253906 7.75 C 32.125 10.621094 33.707031 14.4375 33.707031 18.5 C 33.707031 22.5625 32.125 26.378906 29.253906 29.253906 C 26.382812 32.125 22.5625 33.707031 18.5 33.707031 Z M 18.5 3.832031 C 14.582031 3.832031 10.898438 5.359375 8.128906 8.128906 C 5.359375 10.898438 3.832031 14.582031 3.832031 18.5 C 3.832031 22.417969 5.359375 26.101562 8.128906 28.871094 C 10.898438 31.644531 14.582031 33.167969 18.5 33.167969 C 22.417969 33.167969 26.101562 31.644531 28.871094 28.871094 C 31.644531 26.101562 33.167969 22.417969 33.167969 18.5 C 33.167969 14.582031 31.644531 10.898438 28.871094 8.128906 C 26.101562 5.359375 22.417969 3.832031 18.5 3.832031 Z M 18.5 3.832031 " fill-opacity="1" fill-rule="nonzero"/><path fill="#ffffff" d="M 26.078125 18.183594 L 26.074219 18.183594 C 25.777344 18.183594 25.539062 17.941406 25.539062 17.644531 C 25.546875 15.988281 24.910156 14.433594 23.738281 13.261719 C 22.578125 12.101562 21.03125 11.460938 19.390625 11.460938 C 19.378906 11.460938 19.367188 11.460938 19.355469 11.460938 C 19.058594 11.460938 18.816406 11.222656 18.816406 10.925781 C 18.816406 10.628906 19.054688 10.390625 19.351562 10.386719 C 21.296875 10.375 23.125 11.128906 24.5 12.503906 C 25.871094 13.878906 26.625 15.707031 26.613281 17.648438 C 26.613281 17.945312 26.371094 18.183594 26.078125 18.183594 Z M 26.078125 18.183594 " fill-opacity="1" fill-rule="nonzero"/><path fill="#ffffff" d="M 22.929688 18.394531 C 22.917969 18.394531 22.90625 18.394531 22.894531 18.394531 C 22.597656 18.371094 22.375 18.117188 22.394531 17.820312 C 22.453125 16.949219 22.136719 16.09375 21.519531 15.480469 C 20.90625 14.863281 20.054688 14.546875 19.179688 14.605469 C 18.886719 14.628906 18.628906 14.402344 18.609375 14.109375 C 18.585938 13.8125 18.8125 13.554688 19.105469 13.535156 C 20.289062 13.453125 21.445312 13.886719 22.28125 14.71875 C 23.117188 15.554688 23.546875 16.710938 23.464844 17.894531 C 23.445312 18.175781 23.210938 18.394531 22.929688 18.394531 Z M 22.929688 18.394531 " fill-opacity="1" fill-rule="nonzero"/><path fill="#ffffff" d="M 25.78125 24.78125 L 25.949219 23.878906 C 26.152344 22.761719 25.386719 21.699219 24.257812 21.542969 L 22.308594 21.277344 C 21.472656 21.164062 20.65625 21.585938 20.269531 22.335938 C 20 22.859375 19.394531 23.117188 18.832031 22.945312 C 16.386719 22.207031 14.792969 20.617188 14.054688 18.171875 C 13.882812 17.605469 14.140625 17 14.664062 16.730469 C 15.414062 16.34375 15.839844 15.527344 15.722656 14.691406 L 15.457031 12.742188 C 15.300781 11.617188 14.238281 10.847656 13.121094 11.054688 L 12.21875 11.21875 C 11.15625 11.414062 10.386719 12.339844 10.386719 13.421875 L 10.386719 14.386719 C 10.386719 16.511719 10.925781 18.601562 11.980469 20.445312 C 12.015625 20.507812 12.050781 20.570312 12.085938 20.628906 C 14.285156 24.355469 18.324219 26.613281 22.652344 26.613281 L 23.582031 26.613281 C 24.660156 26.613281 25.585938 25.84375 25.78125 24.78125 Z M 25.78125 24.78125 " fill-opacity="1" fill-rule="nonzero"/></svg>