<svg xmlns="http://www.w3.org/2000/svg" xmlns:xlink="http://www.w3.org/1999/xlink" width="50" zoomAndPan="magnify" viewBox="0 0 37.5 37.499999" height="50" preserveAspectRatio="xMidYMid meet" version="1.0"><defs><clipPath id="c499b8ebb3"><path d="M 0 0 L 37.007812 0 L 37.007812 37.007812 L 0 37.007812 Z M 0 0 " clip-rule="nonzero"/></clipPath><clipPath id="f9ebcfc54e"><path d="M 18.503906 0 C 8.285156 0 0 8.285156 0 18.503906 C 0 28.722656 8.285156 37.007812 18.503906 37.007812 C 28.722656 37.007812 37.007812 28.722656 37.007812 18.503906 C 37.007812 8.285156 28.722656 0 18.503906 0 Z M 18.503906 0 " clip-rule="nonzero"/></clipPath><clipPath id="23e092cd9c"><path d="M 0 0 L 37.007812 0 L 37.007812 37.007812 L 0 37.007812 Z M 0 0 " clip-rule="nonzero"/></clipPath><clipPath id="96a095f21a"><path d="M 18.503906 0 C 8.285156 0 0 8.285156 0 18.503906 C 0 28.722656 8.285156 37.007812 18.503906 37.007812 C 28.722656 37.007812 37.007812 28.722656 37.007812 18.503906 C 37.007812 8.285156 28.722656 0 18.503906 0 Z M 18.503906 0 " clip-rule="nonzero"/></clipPath><clipPath id="f396fca3f8"><rect x="0" width="38" y="0" height="38"/></clipPath><clipPath id="bc6946d5a9"><path d="M 6.316406 6.066406 L 30.738281 6.066406 L 30.738281 31 L 6.316406 31 Z M 6.316406 6.066406 " clip-rule="nonzero"/></clipPath></defs><g clip-path="url(#c499b8ebb3)"><g clip-path="url(#f9ebcfc54e)"><g transform="matrix(1, 0, 0, 1, 0, 0)"><g clip-path="url(#f396fca3f8)"><g clip-path="url(#23e092cd9c)"><g clip-path="url(#96a095f21a)"><path fill="#221f1f" d="M 0 0 L 37.007812 0 L 37.007812 37.007812 L 0 37.007812 Z M 0 0 " fill-opacity="1" fill-rule="nonzero"/></g></g></g></g></g></g><g clip-path="url(#bc6946d5a9)"><path fill="#ffffff" d="M 20.816406 16.597656 L 29.875 6.066406 L 27.726562 6.066406 L 19.863281 15.210938 L 13.578125 6.066406 L 6.332031 6.066406 L 15.832031 19.894531 L 6.332031 30.933594 L 8.480469 30.933594 L 16.789062 21.28125 L 23.421875 30.933594 L 30.667969 30.933594 Z M 17.875 20.015625 L 16.910156 18.636719 L 9.253906 7.683594 L 12.550781 7.683594 L 18.734375 16.523438 L 19.695312 17.898438 L 27.730469 29.390625 L 24.433594 29.390625 L 17.875 20.011719 Z M 17.875 20.015625 " fill-opacity="1" fill-rule="nonzero"/></g></svg>