<svg xmlns="http://www.w3.org/2000/svg" xmlns:xlink="http://www.w3.org/1999/xlink" width="50" zoomAndPan="magnify" viewBox="0 0 37.5 37.499999" height="50" preserveAspectRatio="xMidYMid meet" version="1.0"><defs><clipPath id="09da43f966"><path d="M 0.457031 1.15625 L 36.722656 1.15625 L 36.722656 35.941406 L 0.457031 35.941406 Z M 0.457031 1.15625 " clip-rule="nonzero"/></clipPath></defs><g clip-path="url(#09da43f966)"><path fill="#ff66c4" d="M 21.089844 2.699219 L 24.574219 8.859375 C 25.136719 9.859375 26.109375 10.5625 27.234375 10.792969 L 34.171875 12.199219 C 36.433594 12.660156 37.328125 15.414062 35.769531 17.117188 L 30.984375 22.332031 C 30.210938 23.179688 29.839844 24.320312 29.96875 25.460938 L 30.773438 32.492188 C 31.035156 34.789062 28.691406 36.488281 26.589844 35.53125 L 20.148438 32.59375 C 19.105469 32.117188 17.90625 32.117188 16.863281 32.59375 L 10.421875 35.53125 C 8.320312 36.488281 5.976562 34.789062 6.238281 32.492188 L 7.042969 25.460938 C 7.171875 24.320312 6.800781 23.179688 6.027344 22.332031 L 1.242188 17.117188 C -0.320312 15.414062 0.578125 12.660156 2.84375 12.199219 L 9.78125 10.792969 C 10.902344 10.5625 11.875 9.859375 12.4375 8.863281 L 15.921875 2.699219 C 17.058594 0.6875 19.953125 0.6875 21.089844 2.699219 Z M 21.089844 2.699219 " fill-opacity="1" fill-rule="nonzero"/></g></svg>